<svg version="1.1" id="Layer_1" xmlns="http://www.w3.org/2000/svg" xmlns:xlink="http://www.w3.org/1999/xlink" x="0px" y="0px"
	 width="100%" viewBox="0 0 500 500" enable-background="new 0 0 500 500" xml:space="preserve">

<path fill="#3C2F2F" opacity="1.000000" stroke="none" 
	d="
M82.333328,501.000000 
	C79.993813,499.958832 77.950233,498.983276 75.987885,497.865204 
	C67.257767,492.891052 62.561592,482.575531 64.744438,473.272797 
	C67.243050,462.624359 75.589333,455.293030 86.234985,454.952667 
	C97.558121,454.590668 108.894043,454.591888 120.224937,454.515045 
	C204.044418,453.946625 287.863892,453.374115 371.683746,452.862946 
	C389.789856,452.752533 401.022766,466.832550 395.943115,483.011597 
	C392.871979,492.793365 384.239075,498.684998 372.415985,498.833038 
	C360.585663,498.981201 348.752930,498.925812 336.921570,499.006500 
	C287.929504,499.340515 238.937546,499.692291 189.482056,500.102173 
	C184.672714,500.844849 180.297470,500.311768 175.469696,500.484741 
	C169.979248,500.484070 164.958450,500.484619 159.465271,500.484741 
	C152.989594,500.484039 146.986328,500.484650 140.508545,500.484741 
	C133.386353,500.484039 126.738686,500.484619 119.618729,500.484802 
	C113.823738,500.483978 108.501038,500.484650 102.714081,500.484863 
	C96.432190,500.523376 90.613998,500.404175 84.398369,500.773743 
	C83.555557,501.000000 83.111107,501.000000 82.333328,501.000000 
z"/>
<path fill="#B9A18B" opacity="1.000000" stroke="none" 
	d="
M118.781639,500.360168 
	C125.744026,500.115082 132.428528,500.058044 139.577545,500.085052 
	C140.185440,500.315155 140.328842,500.461273 140.236115,500.803680 
	C133.312347,501.000000 126.624710,501.000000 119.468536,501.000000 
	C118.834587,500.849396 118.669167,500.698822 118.781639,500.360168 
z"/>
<path fill="#CEBEAE" opacity="1.000000" stroke="none" 
	d="
M140.468277,501.000000 
	C140.000000,501.000000 140.015320,500.584259 140.028687,500.376648 
	C146.062057,500.112549 152.082062,500.056030 158.565552,500.082977 
	C159.178329,500.310730 159.327621,500.455017 159.238464,500.799683 
	C152.978851,501.000000 146.957703,501.000000 140.468277,501.000000 
z"/>
<path fill="#936F4B" opacity="1.000000" stroke="none" 
	d="
M84.467941,501.000000 
	C89.605057,498.923309 95.416870,500.470276 101.582367,500.084106 
	C102.190948,500.296021 102.332077,500.447266 102.236603,500.799255 
	C96.311958,501.000000 90.623917,501.000000 84.467941,501.000000 
z"/>
<path fill="#A38466" opacity="1.000000" stroke="none" 
	d="
M102.467606,501.000000 
	C102.000000,501.000000 102.014648,500.571167 102.032227,500.357971 
	C107.408722,500.100525 112.767639,500.056305 118.593033,500.092102 
	C119.059525,500.172119 119.022438,500.585541 119.011215,500.792786 
	C113.645073,501.000000 108.290138,501.000000 102.467606,501.000000 
z"/>
<path fill="#E1D6CD" opacity="1.000000" stroke="none" 
	d="
M159.466858,501.000000 
	C159.000000,501.000000 159.009933,500.583069 159.019485,500.374756 
	C164.052216,500.111053 169.075409,500.055664 174.560333,500.082642 
	C175.174423,500.308289 175.326797,500.451599 175.239578,500.797424 
	C169.977905,501.000000 164.955811,501.000000 159.466858,501.000000 
z"/>
<path fill="#F1ECE7" opacity="1.000000" stroke="none" 
	d="
M175.464645,501.000000 
	C175.000000,501.000000 175.006897,500.582397 175.014481,500.373718 
	C179.381317,500.110687 183.740570,500.056366 188.559174,500.084442 
	C189.018539,500.166840 189.006577,500.583374 189.003296,500.791687 
	C184.643097,501.000000 180.286194,501.000000 175.464645,501.000000 
z"/>
<path fill="#3C2F2F" opacity="1.000000" stroke="none" 
	d="
M58.000031,238.000000 
	C58.000038,217.671051 57.980286,197.842056 58.007515,178.013153 
	C58.023674,166.246979 65.253036,159.001968 76.893036,159.001862 
	C185.535706,159.000885 294.178375,158.997452 402.821045,159.003311 
	C440.991119,159.005371 473.699310,186.470032 480.634888,224.314758 
	C487.592316,262.278625 466.392609,299.651611 430.528137,313.233337 
	C417.451965,318.185242 403.972565,319.199341 390.266968,318.749969 
	C386.815582,318.636780 385.413330,319.764069 384.278503,322.957855 
	C362.794708,383.420044 320.972900,422.203186 258.198395,435.255066 
	C199.940125,447.367981 148.599487,430.779419 106.450638,388.776245 
	C74.092018,356.529480 58.322964,316.759979 58.010975,270.993195 
	C57.937145,260.162598 58.000034,249.331085 58.000031,238.000000 
z"/>
<path fill="#3C2F2F" opacity="1.000000" stroke="none" 
	d="
M267.757446,83.686722 
	C276.265900,61.096703 284.477966,38.809990 293.066010,16.669109 
	C298.507568,2.640072 314.578918,-1.447420 325.200287,8.131010 
	C331.610748,13.912011 333.545166,22.124582 330.262543,30.924192 
	C319.755676,59.089890 309.160309,87.222588 298.592163,115.365425 
	C296.081512,122.051270 293.615265,128.755051 291.002991,135.401230 
	C286.322784,147.308807 275.464081,152.345566 264.087677,147.984192 
	C253.916992,144.085068 249.360397,132.783600 253.561676,121.349670 
	C258.143921,108.878853 262.925507,96.481262 267.757446,83.686722 
z"/>
<path fill="#3C2F2F" opacity="1.000000" stroke="none" 
	d="
M173.034058,92.018555 
	C182.451202,66.934685 191.779129,42.230404 201.083374,17.517206 
	C204.233017,9.151426 209.955475,3.839471 219.042770,3.115753 
	C227.523590,2.440338 233.838440,6.372173 237.939926,13.665807 
	C241.269821,19.587322 240.794708,25.705738 238.435059,31.941822 
	C227.091629,61.920063 215.852936,91.937927 204.571182,121.939514 
	C202.759109,126.758377 201.052765,131.622910 199.061981,136.367477 
	C194.392548,147.496078 183.476089,152.206100 172.503677,147.969849 
	C162.667297,144.172180 157.909042,133.119659 161.752609,122.256447 
	C165.297333,112.237801 169.193954,102.343658 173.034058,92.018555 
z"/>

</svg>